<svg width="33" height="33" viewBox="0 0 33 33" fill="none" xmlns="http://www.w3.org/2000/svg">
<path d="M16.5 32.7487C7.67395 32.7487 0.5 25.5747 0.5 16.7487C0.5 7.92264 7.67395 0.748688 16.5 0.748688C25.326 0.748688 32.5 7.92264 32.5 16.7487C32.5 25.5747 25.326 32.7487 16.5 32.7487ZM16.5 2.98125C8.9093 2.98125 2.73256 9.15799 2.73256 16.7487C2.73256 24.3394 8.9093 30.5161 16.5 30.5161C24.0907 30.5161 30.2674 24.3394 30.2674 16.7487C30.2674 9.15799 24.0907 2.98125 16.5 2.98125Z" fill="#292D32"/>
<path d="M14.3858 22.0772C14.0881 22.0772 13.8053 21.9582 13.5969 21.7498L9.38476 17.5377C8.95313 17.1061 8.95313 16.3917 9.38476 15.96C9.81638 15.5284 10.5308 15.5284 10.9624 15.96L14.3858 19.3833L22.036 11.7331C22.4676 11.3014 23.182 11.3014 23.6137 11.7331C24.0453 12.1647 24.0453 12.8791 23.6137 13.3107L15.1746 21.7498C14.9662 21.9582 14.6834 22.0772 14.3858 22.0772Z" fill="#292D32"/>
</svg>
