<svg width="60" height="60" viewBox="0 0 60 60" fill="none" xmlns="http://www.w3.org/2000/svg">
<rect width="60" height="60" rx="15" fill="#E63946"/>
<path d="M42.1875 29H17.8125C17.0666 29 16.3512 29.3386 15.8238 29.9414C15.2963 30.5442 15 31.3618 15 32.2143C15 33.0668 15.2963 33.8843 15.8238 34.4871C16.3512 35.0899 17.0666 35.4286 17.8125 35.4286H42.1875C42.9334 35.4286 43.6488 35.0899 44.1762 34.4871C44.7037 33.8843 45 33.0668 45 32.2143C45 31.3618 44.7037 30.5442 44.1762 29.9414C43.6488 29.3386 42.9334 29 42.1875 29V29ZM43.125 37.5714H16.875C16.6264 37.5714 16.3879 37.6843 16.2121 37.8852C16.0363 38.0862 15.9375 38.3587 15.9375 38.6429V39.7143C15.9375 40.8509 16.3326 41.941 17.0358 42.7447C17.7391 43.5485 18.6929 44 19.6875 44H40.3125C41.3071 44 42.2609 43.5485 42.9641 42.7447C43.6674 41.941 44.0625 40.8509 44.0625 39.7143V38.6429C44.0625 38.3587 43.9637 38.0862 43.7879 37.8852C43.6121 37.6843 43.3736 37.5714 43.125 37.5714ZM18.4359 26.8571H41.5641C43.5896 26.8571 44.7645 23.9174 43.6043 21.7759C41.25 17.4286 36.0674 14.0067 30 14C23.9332 14.0067 18.75 17.4286 16.3957 21.7752C15.2344 23.9167 16.4104 26.8571 18.4359 26.8571ZM37.5 19.3571C37.6854 19.3571 37.8667 19.42 38.0208 19.5377C38.175 19.6554 38.2952 19.8228 38.3661 20.0186C38.4371 20.2143 38.4557 20.4298 38.4195 20.6376C38.3833 20.8454 38.294 21.0363 38.1629 21.1862C38.0318 21.336 37.8648 21.4381 37.6829 21.4794C37.501 21.5208 37.3125 21.4995 37.1412 21.4184C36.9699 21.3373 36.8235 21.2 36.7205 21.0238C36.6175 20.8476 36.5625 20.6405 36.5625 20.4286C36.5625 20.1444 36.6613 19.8719 36.8371 19.671C37.0129 19.47 37.2514 19.3571 37.5 19.3571V19.3571ZM30 17.2143C30.1854 17.2143 30.3667 17.2771 30.5208 17.3949C30.675 17.5126 30.7952 17.6799 30.8661 17.8757C30.9371 18.0715 30.9557 18.2869 30.9195 18.4947C30.8833 18.7026 30.794 18.8935 30.6629 19.0433C30.5318 19.1932 30.3648 19.2952 30.1829 19.3366C30.001 19.3779 29.8125 19.3567 29.6412 19.2756C29.4699 19.1945 29.3235 19.0572 29.2205 18.881C29.1175 18.7048 29.0625 18.4976 29.0625 18.2857C29.0625 18.0016 29.1613 17.729 29.3371 17.5281C29.5129 17.3272 29.7514 17.2143 30 17.2143V17.2143ZM22.5 19.3571C22.6854 19.3571 22.8667 19.42 23.0208 19.5377C23.175 19.6554 23.2952 19.8228 23.3661 20.0186C23.4371 20.2143 23.4557 20.4298 23.4195 20.6376C23.3833 20.8454 23.294 21.0363 23.1629 21.1862C23.0318 21.336 22.8648 21.4381 22.6829 21.4794C22.501 21.5208 22.3125 21.4995 22.1412 21.4184C21.9699 21.3373 21.8235 21.2 21.7205 21.0238C21.6175 20.8476 21.5625 20.6405 21.5625 20.4286C21.5625 20.1444 21.6613 19.8719 21.8371 19.671C22.0129 19.47 22.2514 19.3571 22.5 19.3571V19.3571Z" fill="#FCFCFC"/>
</svg>
