<svg width="24" height="24" viewBox="0 0 24 24" fill="none" xmlns="http://www.w3.org/2000/svg">
<mask id="path-1-inside-1_161_124" fill="white">
<path fill-rule="evenodd" clip-rule="evenodd" d="M11.3131 0.319256C11.6943 -0.106419 12.3058 -0.106419 12.687 0.319256L23.7074 12.6251C24.093 13.0557 24.0981 13.7598 23.7188 14.1976C23.3394 14.6354 22.7192 14.6412 22.3335 14.2105L20.9796 12.6987V23.0734C20.9796 23.5851 20.6142 24 20.1632 24H3.83673C3.38589 24 3.0204 23.5851 3.0204 23.0734V12.6987L1.66656 14.2105C1.28087 14.6412 0.66065 14.6354 0.28125 14.1976C-0.0981496 13.7598 -0.0930551 13.0557 0.29263 12.6251L11.3131 0.319256ZM12 2.67177L19.3469 10.8756V22.1467H16.0816V15.6602C16.0816 15.1485 15.7162 14.7336 15.2653 14.7336H10.3674C9.91651 14.7336 9.55102 15.1485 9.55102 15.6602V22.1467H4.65306V10.8756L12 2.67177ZM11.1837 22.1467H14.449V16.5869H11.1837V22.1467Z"/>
</mask>
<path fill-rule="evenodd" clip-rule="evenodd" d="M11.3131 0.319256C11.6943 -0.106419 12.3058 -0.106419 12.687 0.319256L23.7074 12.6251C24.093 13.0557 24.0981 13.7598 23.7188 14.1976C23.3394 14.6354 22.7192 14.6412 22.3335 14.2105L20.9796 12.6987V23.0734C20.9796 23.5851 20.6142 24 20.1632 24H3.83673C3.38589 24 3.0204 23.5851 3.0204 23.0734V12.6987L1.66656 14.2105C1.28087 14.6412 0.66065 14.6354 0.28125 14.1976C-0.0981496 13.7598 -0.0930551 13.0557 0.29263 12.6251L11.3131 0.319256ZM12 2.67177L19.3469 10.8756V22.1467H16.0816V15.6602C16.0816 15.1485 15.7162 14.7336 15.2653 14.7336H10.3674C9.91651 14.7336 9.55102 15.1485 9.55102 15.6602V22.1467H4.65306V10.8756L12 2.67177ZM11.1837 22.1467H14.449V16.5869H11.1837V22.1467Z" fill="#F1FAEE"/>
<path d="M11.3131 0.319256L15.1701 3.77338L15.1701 3.77337L11.3131 0.319256ZM12.687 0.319256L8.82996 3.77337L8.82997 3.77339L12.687 0.319256ZM23.7074 12.6251L27.5646 9.17117L27.5644 9.17093L23.7074 12.6251ZM23.7188 14.1976L27.6316 17.5885L27.6322 17.5877L23.7188 14.1976ZM22.3335 14.2105L26.1908 10.7567L26.1904 10.7562L22.3335 14.2105ZM20.9796 12.6987L24.8364 9.24443L15.802 -0.842956V12.6987H20.9796ZM3.0204 12.6987H8.198V-0.843806L-0.836607 9.24459L3.0204 12.6987ZM1.66656 14.2105L-2.19045 10.7563L-2.1905 10.7564L1.66656 14.2105ZM0.28125 14.1976L4.1941 10.8068L4.19402 10.8067L0.28125 14.1976ZM0.29263 12.6251L4.14962 16.0792L4.14964 16.0792L0.29263 12.6251ZM12 2.67177L15.857 -0.782353L12 -5.08925L8.143 -0.782361L12 2.67177ZM19.3469 10.8756H24.5245V8.89614L23.2039 7.42153L19.3469 10.8756ZM19.3469 22.1467V27.3243H24.5245V22.1467H19.3469ZM16.0816 22.1467H10.904V27.3243H16.0816V22.1467ZM9.55102 22.1467V27.3243H14.7286V22.1467H9.55102ZM4.65306 22.1467H-0.524539V27.3243H4.65306V22.1467ZM4.65306 10.8756L0.79605 7.42152L-0.524539 8.89614V10.8756H4.65306ZM11.1837 22.1467H6.00608V27.3243H11.1837V22.1467ZM14.449 22.1467V27.3243H19.6266V22.1467H14.449ZM14.449 16.5869H19.6266V11.4093H14.449V16.5869ZM11.1837 16.5869V11.4093H6.00608V16.5869H11.1837ZM15.1701 3.77337C14.4138 4.61786 13.2761 5.1776 12 5.1776C10.7239 5.1776 9.58624 4.61786 8.82996 3.77337L16.544 -3.13486C14.1049 -5.85851 9.89517 -5.85851 7.45603 -3.13486L15.1701 3.77337ZM8.82997 3.77339L19.8504 16.0792L27.5644 9.17093L16.544 -3.13488L8.82997 3.77339ZM19.8502 16.079C19.1138 15.2566 18.8286 14.2854 18.8225 13.4461C18.8164 12.6067 19.0874 11.6363 19.8055 10.8074L27.6322 17.5877C29.7125 15.1864 29.695 11.5504 27.5646 9.17117L19.8502 16.079ZM19.8061 10.8067C20.5522 9.94577 21.6912 9.36435 22.9802 9.35233C24.2703 9.3403 25.4252 9.90155 26.1908 10.7567L18.4762 17.6643C20.9508 20.4279 25.218 20.3734 27.6316 17.5885L19.8061 10.8067ZM26.1904 10.7562L24.8364 9.24443L17.1227 16.153L18.4767 17.6648L26.1904 10.7562ZM15.802 12.6987V23.0734H26.1572V12.6987H15.802ZM15.802 23.0734C15.802 21.3624 17.1569 18.8224 20.1632 18.8224V29.1776C24.0715 29.1776 26.1572 25.8077 26.1572 23.0734H15.802ZM20.1632 18.8224H3.83673V29.1776H20.1632V18.8224ZM3.83673 18.8224C6.84282 18.8224 8.198 21.362 8.198 23.0734H-2.15719C-2.15719 25.8081 -0.0710387 29.1776 3.83673 29.1776V18.8224ZM8.198 23.0734V12.6987H-2.15719V23.0734H8.198ZM-0.836607 9.24459L-2.19045 10.7563L5.52357 17.6646L6.87742 16.1528L-0.836607 9.24459ZM-2.1905 10.7564C-1.42497 9.90156 -0.270217 9.3403 1.01982 9.35233C2.3089 9.36435 3.44799 9.94582 4.1941 10.8068L-3.6316 17.5883C-1.21788 20.3737 3.04927 20.4276 5.52362 17.6645L-2.1905 10.7564ZM4.19402 10.8067C4.91234 11.6356 5.18357 12.6063 5.1775 13.4461C5.17142 14.2857 4.88602 15.2569 4.14962 16.0792L-3.56436 9.17092C-5.69498 11.55 -5.71287 15.1867 -3.63152 17.5884L4.19402 10.8067ZM4.14964 16.0792L15.1701 3.77338L7.45604 -3.13487L-3.56438 9.17094L4.14964 16.0792ZM8.14299 6.12589L15.4899 14.3298L23.2039 7.42153L15.857 -0.782353L8.14299 6.12589ZM14.1693 10.8756V22.1467H24.5245V10.8756H14.1693ZM19.3469 16.9691H16.0816V27.3243H19.3469V16.9691ZM21.2592 22.1467V15.6602H10.904V22.1467H21.2592ZM21.2592 15.6602C21.2592 12.9255 19.1732 9.55598 15.2653 9.55598V19.9112C12.2592 19.9112 10.904 17.3714 10.904 15.6602H21.2592ZM15.2653 9.55598H10.3674V19.9112H15.2653V9.55598ZM10.3674 9.55598C6.45983 9.55598 4.37343 12.9251 4.37343 15.6602H14.7286C14.7286 17.3718 13.3732 19.9112 10.3674 19.9112V9.55598ZM4.37343 15.6602V22.1467H14.7286V15.6602H4.37343ZM9.55102 16.9691H4.65306V27.3243H9.55102V16.9691ZM9.83066 22.1467V10.8756H-0.524539V22.1467H9.83066ZM8.51007 14.3298L15.857 6.12589L8.143 -0.782361L0.79605 7.42152L8.51007 14.3298ZM11.1837 27.3243H14.449V16.9691H11.1837V27.3243ZM19.6266 22.1467V16.5869H9.27139V22.1467H19.6266ZM14.449 11.4093H11.1837V21.7645H14.449V11.4093ZM6.00608 16.5869V22.1467H16.3613V16.5869H6.00608Z" fill="#F1FAEE" mask="url(#path-1-inside-1_161_124)"/>
</svg>
