<svg width="60" height="60" viewBox="0 0 60 60" fill="none" xmlns="http://www.w3.org/2000/svg">
<rect width="60" height="60" rx="15" fill="#E63946"/>
<path d="M44.6842 16.3737C43.8051 15.4949 42.6131 15.0012 41.3701 15.0012C40.1271 15.0012 38.9351 15.4949 38.056 16.3737L17.431 36.9987C16.9833 37.4311 16.6262 37.9483 16.3806 38.5202C16.1349 39.0921 16.0056 39.7072 16.0002 40.3296C15.9948 40.952 16.1134 41.5693 16.3491 42.1453C16.5848 42.7214 16.9328 43.2448 17.3729 43.6849C17.8131 44.125 18.3364 44.4731 18.9125 44.7088C19.4886 44.9445 20.1058 45.0631 20.7282 45.0577C21.3506 45.0523 21.9657 44.9229 22.5376 44.6773C23.1095 44.4316 23.6268 44.0745 24.0592 43.6268L44.6842 23.0018C45.5629 22.1228 46.0566 20.9307 46.0566 19.6877C46.0566 18.4448 45.5629 17.2527 44.6842 16.3737V16.3737ZM41.7586 21.9512C40.6101 23.0991 39.5601 23.2795 38.7158 23.4243C37.9576 23.5549 37.4092 23.6487 36.6826 24.3752C35.956 25.1018 35.8623 25.6502 35.7316 26.409C35.5863 27.2528 35.4064 28.3034 34.258 29.4512C33.1096 30.5991 32.0596 30.7795 31.2158 30.9248C30.457 31.0549 29.9092 31.1487 29.1826 31.8752C28.456 32.6018 28.3623 33.1497 28.2316 33.9084C28.0869 34.7522 27.907 35.8028 26.7586 36.9506C25.6101 38.0985 24.5596 38.2795 23.7158 38.4243C22.9576 38.5549 22.4092 38.6487 21.6826 39.3752C21.5068 39.5511 21.2683 39.6499 21.0196 39.6499C20.7709 39.6499 20.5325 39.5511 20.3566 39.3752C20.1808 39.1994 20.082 38.9609 20.082 38.7123C20.082 38.4636 20.1808 38.2251 20.3566 38.0493C21.5051 36.9014 22.5551 36.7209 23.3988 36.5762C24.1605 36.4461 24.7055 36.3524 25.4326 35.6252C26.1597 34.8981 26.2529 34.3508 26.383 33.592C26.5283 32.7483 26.7082 31.6977 27.8566 30.5498C29.0051 29.402 30.0551 29.2215 30.8988 29.0768C31.6605 28.9467 32.2055 28.8524 32.932 28.1258C33.6586 27.3993 33.7523 26.8508 33.8836 26.092C34.0283 25.2483 34.2082 24.1977 35.3566 23.0498C36.5051 21.902 37.5551 21.7209 38.3988 21.5762C39.1576 21.4456 39.7055 21.3524 40.4326 20.6252C40.6084 20.4494 40.8469 20.3506 41.0956 20.3506C41.3443 20.3506 41.5827 20.4494 41.7586 20.6252C41.9344 20.8011 42.0332 21.0396 42.0332 21.2882C42.0332 21.5369 41.9344 21.7754 41.7586 21.9512V21.9512ZM17.8998 33.878L34.9353 16.8424L34.2592 16.1657C32.7943 14.7008 30.518 14.6036 29.1738 15.9477L17.0051 28.1165C15.6609 29.4606 15.7588 31.737 17.223 33.2012L17.8998 33.878ZM44.2154 26.1225L27.1799 43.1581L27.856 43.8348C29.3209 45.2997 31.5972 45.3969 32.9414 44.0528L45.1101 31.884C46.4543 30.5399 46.3564 28.2635 44.8922 26.7987L44.2154 26.1225Z" fill="#FCFCFC"/>
</svg>
