<svg width="60" height="60" viewBox="0 0 60 60" fill="none" xmlns="http://www.w3.org/2000/svg">
<rect width="60" height="60" rx="15" fill="#E63946"/>
<path d="M41.25 24.3921H41.1766C41.3574 23.2116 41.2033 22.0158 40.7241 20.8831C40.245 19.7504 39.4518 18.7064 38.3964 17.8195C37.3411 16.9327 36.0475 16.223 34.6004 15.7371C33.1534 15.2512 31.5857 15 30 15C28.4143 15 26.8466 15.2512 25.3996 15.7371C23.9525 16.223 22.6589 16.9327 21.6036 17.8195C20.5482 18.7064 19.755 19.7504 19.2759 20.8831C18.7967 22.0158 18.6426 23.2116 18.8234 24.3921H18.75C17.7554 24.3921 16.8016 24.6882 16.0983 25.2152C15.3951 25.7422 15 26.4569 15 27.2022C15 27.9475 15.3951 28.6623 16.0983 29.1893C16.8016 29.7163 17.7554 30.0124 18.75 30.0124H41.25C42.2446 30.0124 43.1984 29.7163 43.9017 29.1893C44.6049 28.6623 45 27.9475 45 27.2022C45 26.4569 44.6049 25.7422 43.9017 25.2152C43.1984 24.6882 42.2446 24.3921 41.25 24.3921ZM27.7641 43.9278C27.9612 44.2479 28.2765 44.519 28.6727 44.709C29.069 44.899 29.5296 45 30 45C30.4704 45 30.931 44.899 31.3273 44.709C31.7235 44.519 32.0388 44.2479 32.2359 43.9278L40 31.8858H20L27.7641 43.9278Z" fill="#FCFCFC"/>
</svg>
