<svg width="45" height="47" viewBox="0 0 45 47" fill="none" xmlns="http://www.w3.org/2000/svg">
<path d="M43.2838 11.9794C43.2376 11.9794 43.1684 11.9794 43.0992 11.9794C30.8897 10.8208 18.7033 10.3836 6.63229 11.5422L1.92392 11.9794C0.954548 12.0669 0.100578 11.4111 0.00825738 10.4929C-0.0840636 9.57479 0.608344 8.78782 1.55463 8.70038L6.26301 8.26317C18.5418 7.08271 30.982 7.54178 43.4454 8.70038C44.3917 8.78782 45.0841 9.59665 44.9917 10.4929C44.9225 11.3455 44.1609 11.9794 43.2838 11.9794Z" fill="#E63946"/>
<path d="M14.4359 9.77158C14.3436 9.77158 14.2512 9.77158 14.1358 9.74972C13.2126 9.5967 12.5664 8.74415 12.7279 7.86973L13.2357 5.00602C13.605 2.90743 14.1128 0 19.4904 0H25.5374C30.9382 0 31.4459 3.01673 31.7921 5.02788L32.2999 7.86973C32.4615 8.76601 31.8152 9.61856 30.892 9.74972C29.9457 9.90275 29.0456 9.29066 28.9071 8.41624L28.3994 5.57439C28.0762 3.67254 28.007 3.30092 25.5605 3.30092H19.5135C17.067 3.30092 17.0209 3.60696 16.6747 5.55253L16.1438 8.39438C16.0053 9.20321 15.2668 9.77158 14.4359 9.77158Z" fill="#E63946"/>
<path d="M29.9219 47H15.1044C7.04938 47 6.72626 42.7809 6.47237 39.3707L4.97216 17.3573C4.90292 16.461 5.64149 15.6741 6.58778 15.6085C7.55715 15.5647 8.36496 16.2424 8.4342 17.1387L9.93441 39.1521C10.1883 42.4749 10.2806 43.7209 15.1044 43.7209H29.9219C34.7688 43.7209 34.8611 42.4749 35.0919 39.1521L36.5921 17.1387C36.6614 16.2424 37.4923 15.5647 38.4385 15.6085C39.3848 15.6741 40.1234 16.4391 40.0542 17.3573L38.5539 39.3707C38.3001 42.7809 37.9769 47 29.9219 47Z" fill="#E63946"/>
<path d="M26.3438 34.9766H18.6581C17.7117 34.9766 16.927 34.2333 16.927 33.3371C16.927 32.4408 17.7117 31.6975 18.6581 31.6975H26.3438C27.2901 31.6975 28.0748 32.4408 28.0748 33.3371C28.0748 34.2333 27.2901 34.9766 26.3438 34.9766Z" fill="#E63946"/>
<path d="M28.2823 26.2324H16.7422C15.7959 26.2324 15.0112 25.4892 15.0112 24.5929C15.0112 23.6966 15.7959 22.9534 16.7422 22.9534H28.2823C29.2286 22.9534 30.0133 23.6966 30.0133 24.5929C30.0133 25.4892 29.2286 26.2324 28.2823 26.2324Z" fill="#E63946"/>
</svg>
