<svg width="24" height="28" viewBox="0 0 24 28" fill="none" xmlns="http://www.w3.org/2000/svg">
<mask id="path-1-inside-1_161_132" fill="white">
<path d="M12.0353 25.0483C8.84626 25.0483 5.65721 24.5693 2.63241 23.6114C1.48271 23.236 0.606749 22.4722 0.223516 21.4755C-0.173404 20.4787 -0.036535 19.3784 0.593062 18.3946L2.16705 15.9221C2.49554 15.4043 2.79665 14.3687 2.79665 13.7602V10.0191C2.79665 5.20359 6.94378 1.28125 12.0353 1.28125C17.1269 1.28125 21.274 5.20359 21.274 10.0191V13.7602C21.274 14.3557 21.5751 15.4043 21.9036 15.935L23.4639 18.3946C24.0524 19.3266 24.1619 20.4528 23.765 21.4755C23.3681 22.4981 22.5058 23.2748 21.4245 23.6114C18.4134 24.5693 15.2244 25.0483 12.0353 25.0483ZM12.0353 3.223C8.07979 3.223 4.84968 6.26509 4.84968 10.0191V13.7602C4.84968 14.7052 4.43908 16.1033 3.93266 16.9188L2.35867 19.3913C2.05756 19.8703 1.97544 20.3751 2.15337 20.8023C2.31761 21.2425 2.72822 21.579 3.28938 21.7603C9.0105 23.5726 15.0738 23.5726 20.7949 21.7603C21.2877 21.6049 21.6709 21.2554 21.8488 20.7894C22.0268 20.3234 21.9857 19.8185 21.712 19.3913L20.138 16.9188C19.6179 16.0774 19.221 14.6923 19.221 13.7473V10.0191C19.221 6.26509 16.0045 3.223 12.0353 3.223Z"/>
</mask>
<path d="M12.0353 25.0483C8.84626 25.0483 5.65721 24.5693 2.63241 23.6114C1.48271 23.236 0.606749 22.4722 0.223516 21.4755C-0.173404 20.4787 -0.036535 19.3784 0.593062 18.3946L2.16705 15.9221C2.49554 15.4043 2.79665 14.3687 2.79665 13.7602V10.0191C2.79665 5.20359 6.94378 1.28125 12.0353 1.28125C17.1269 1.28125 21.274 5.20359 21.274 10.0191V13.7602C21.274 14.3557 21.5751 15.4043 21.9036 15.935L23.4639 18.3946C24.0524 19.3266 24.1619 20.4528 23.765 21.4755C23.3681 22.4981 22.5058 23.2748 21.4245 23.6114C18.4134 24.5693 15.2244 25.0483 12.0353 25.0483ZM12.0353 3.223C8.07979 3.223 4.84968 6.26509 4.84968 10.0191V13.7602C4.84968 14.7052 4.43908 16.1033 3.93266 16.9188L2.35867 19.3913C2.05756 19.8703 1.97544 20.3751 2.15337 20.8023C2.31761 21.2425 2.72822 21.579 3.28938 21.7603C9.0105 23.5726 15.0738 23.5726 20.7949 21.7603C21.2877 21.6049 21.6709 21.2554 21.8488 20.7894C22.0268 20.3234 21.9857 19.8185 21.712 19.3913L20.138 16.9188C19.6179 16.0774 19.221 14.6923 19.221 13.7473V10.0191C19.221 6.26509 16.0045 3.223 12.0353 3.223Z" fill="#F1FAEE"/>
<path d="M2.63241 23.6114L1.28513 27.7375L1.30352 27.7435L1.32195 27.7493L2.63241 23.6114ZM0.223516 21.4755L4.27488 19.9178L4.26561 19.8937L4.25605 19.8697L0.223516 21.4755ZM0.593062 18.3946L4.24902 20.7342L4.25457 20.7255L0.593062 18.3946ZM2.16705 15.9221L5.82857 18.253L5.83224 18.2472L2.16705 15.9221ZM21.9036 15.935L18.2128 18.2193L18.2255 18.2398L18.2384 18.2601L21.9036 15.935ZM23.4639 18.3946L27.134 16.0771L27.1291 16.0694L23.4639 18.3946ZM21.4245 23.6114L20.1345 19.4671L20.1216 19.4711L20.1087 19.4752L21.4245 23.6114ZM3.93266 16.9188L7.59418 19.2497L7.60724 19.2292L7.62007 19.2086L3.93266 16.9188ZM2.35867 19.3913L-1.30284 17.0604L-1.30944 17.0708L-1.31598 17.0812L2.35867 19.3913ZM2.15337 20.8023L6.21994 19.2848L6.19148 19.2086L6.16019 19.1334L2.15337 20.8023ZM3.28938 21.7603L1.95543 25.8907L1.96701 25.8944L1.97862 25.8981L3.28938 21.7603ZM20.7949 21.7603L19.4899 17.6206L19.4842 17.6224L20.7949 21.7603ZM21.712 19.3913L18.0504 21.7222L18.0574 21.7331L21.712 19.3913ZM20.138 16.9188L16.4459 19.201L16.461 19.2255L16.4765 19.2497L20.138 16.9188ZM12.0353 20.7078C9.27695 20.7078 6.53073 20.293 3.94286 19.4735L1.32195 27.7493C4.78369 28.8457 8.41556 29.3888 12.0353 29.3888V20.7078ZM3.97968 19.4853C3.91777 19.4651 3.94247 19.4601 4.01302 19.5224C4.08794 19.5886 4.1981 19.7181 4.27488 19.9178L-3.82785 23.0331C-2.89509 25.4592 -0.875851 27.0319 1.28513 27.7375L3.97968 19.4853ZM4.25605 19.8697C4.33025 20.056 4.35511 20.2641 4.33234 20.452C4.31052 20.6323 4.25417 20.7261 4.24901 20.7342L-3.06289 16.0549C-4.35502 18.074 -4.78275 20.636 -3.80901 23.0813L4.25605 19.8697ZM4.25457 20.7255L5.82857 18.253L-1.49446 13.5911L-3.06845 16.0636L4.25457 20.7255ZM5.83224 18.2472C6.30209 17.5065 6.59828 16.6869 6.77256 16.0882C6.94642 15.4909 7.13714 14.6389 7.13714 13.7602H-1.54384C-1.54384 13.6626 -1.53809 13.5965 -1.53529 13.5688C-1.53225 13.5389 -1.52988 13.527 -1.53111 13.534C-1.53219 13.5402 -1.53521 13.5561 -1.54097 13.5806C-1.54667 13.6048 -1.5539 13.6325 -1.56249 13.662C-1.57108 13.6915 -1.57989 13.7189 -1.58814 13.7426C-1.59649 13.7666 -1.60262 13.782 -1.60522 13.7883C-1.60816 13.7954 -1.60412 13.7848 -1.59108 13.7588C-1.57905 13.7349 -1.54927 13.6775 -1.49813 13.5969L5.83224 18.2472ZM7.13714 13.7602V10.0191H-1.54384V13.7602H7.13714ZM7.13714 10.0191C7.13714 7.82552 9.10988 5.62174 12.0353 5.62174V-3.05924C4.77768 -3.05924 -1.54384 2.58167 -1.54384 10.0191H7.13714ZM12.0353 5.62174C14.9607 5.62174 16.9335 7.8255 16.9335 10.0191H25.6145C25.6145 2.58169 19.293 -3.05924 12.0353 -3.05924V5.62174ZM16.9335 10.0191V13.7602H25.6145V10.0191H16.9335ZM16.9335 13.7602C16.9335 14.6356 17.1258 15.4884 17.2955 16.076C17.4678 16.6727 17.7582 17.4848 18.2128 18.2193L25.5944 13.6507C25.6186 13.6898 25.6368 13.7217 25.6495 13.745C25.6623 13.7684 25.6713 13.7861 25.6768 13.7974C25.6874 13.8188 25.6894 13.825 25.685 13.814C25.6808 13.8039 25.6734 13.7848 25.664 13.7575C25.6547 13.7305 25.6451 13.7001 25.6357 13.6678C25.6264 13.6355 25.6186 13.6053 25.6124 13.579C25.6061 13.5523 25.6028 13.5347 25.6015 13.5272C25.6 13.5188 25.6024 13.5304 25.6055 13.5609C25.6071 13.5768 25.6093 13.6009 25.611 13.6325C25.6128 13.6639 25.6145 13.7069 25.6145 13.7602H16.9335ZM18.2384 18.2601L19.7987 20.7197L27.1291 16.0694L25.5688 13.6099L18.2384 18.2601ZM19.7938 20.712C19.729 20.6094 19.6789 20.4754 19.664 20.3227C19.6491 20.1699 19.6721 20.0249 19.7186 19.905L27.8114 23.046C28.7079 20.7361 28.4542 18.1679 27.1339 16.0771L19.7938 20.712ZM19.7186 19.905C19.8305 19.6167 20.0347 19.4981 20.1345 19.4671L22.7146 27.7558C24.9769 27.0515 26.9057 25.3796 27.8114 23.046L19.7186 19.905ZM20.1087 19.4752C17.5388 20.2927 14.7947 20.7078 12.0353 20.7078V29.3888C15.6541 29.3888 19.288 28.8459 22.7404 27.7476L20.1087 19.4752ZM12.0353 -1.11748C5.91921 -1.11748 0.509195 3.63794 0.509195 10.0191H9.19017C9.19017 8.89223 10.2404 7.56349 12.0353 7.56349V-1.11748ZM0.509195 10.0191V13.7602H9.19017V10.0191H0.509195ZM0.509195 13.7602C0.509195 13.6992 0.514175 13.7169 0.496913 13.8198C0.481058 13.9143 0.453695 14.0372 0.413867 14.1739C0.374124 14.3103 0.329929 14.4332 0.289336 14.5296C0.245908 14.6327 0.225305 14.6612 0.245254 14.6291L7.62007 19.2086C8.14114 18.3694 8.509 17.4235 8.74829 16.6022C8.98585 15.7869 9.19017 14.7741 9.19017 13.7602H0.509195ZM0.27115 14.5879L-1.30284 17.0604L6.02018 21.7222L7.59418 19.2497L0.27115 14.5879ZM-1.31598 17.0812C-2.12561 18.369 -2.72744 20.3729 -1.85345 22.4712L6.16019 19.1334C6.67831 20.3774 6.24073 21.3716 6.03332 21.7015L-1.31598 17.0812ZM-1.9132 22.3198C-1.14685 24.3735 0.563812 25.4413 1.95543 25.8907L4.62332 17.6298C4.89262 17.7168 5.78207 18.1114 6.21994 19.2848L-1.9132 22.3198ZM1.97862 25.8981C8.55269 27.9806 15.5316 27.9806 22.1057 25.8981L19.4842 17.6224C14.616 19.1645 9.4683 19.1645 4.60014 17.6224L1.97862 25.8981ZM22.1 25.8999C23.7785 25.3707 25.2244 24.117 25.9038 22.3376L17.7939 19.2412C18.1174 18.3939 18.7969 17.8391 19.4899 17.6206L22.1 25.8999ZM25.9038 22.3376C26.5512 20.6419 26.4158 18.6869 25.3665 17.0495L18.0574 21.7331C17.5557 20.9501 17.5023 20.0048 17.7939 19.2412L25.9038 22.3376ZM25.3735 17.0604L23.7995 14.5879L16.4765 19.2497L18.0505 21.7222L25.3735 17.0604ZM23.8301 14.6367C23.8435 14.6584 23.8205 14.6238 23.7776 14.5215C23.737 14.4248 23.6937 14.3034 23.655 14.1693C23.6162 14.0349 23.5896 13.9136 23.5741 13.8193C23.5574 13.7176 23.5614 13.6951 23.5614 13.7473H14.8805C14.8805 15.5219 15.5144 17.694 16.4459 19.201L23.8301 14.6367ZM23.5614 13.7473V10.0191H14.8805V13.7473H23.5614ZM23.5614 10.0191C23.5614 3.64318 18.1707 -1.11748 12.0353 -1.11748V7.56349C13.8384 7.56349 14.8805 8.887 14.8805 10.0191H23.5614Z" fill="#F1FAEE" mask="url(#path-1-inside-1_161_132)"/>
<mask id="path-3-inside-2_161_132" fill="white">
<path d="M14.5807 3.57283C14.4849 3.57283 14.3891 3.55988 14.2933 3.53399C13.8963 3.43043 13.5131 3.35276 13.1436 3.30098C11.9802 3.15859 10.8578 3.23626 9.80396 3.53399C9.42072 3.6505 9.01016 3.53399 8.75011 3.26215C8.49006 2.9903 8.40794 2.60195 8.55849 2.25244C9.11965 0.893207 10.4883 0 12.0486 0C13.6089 0 14.9776 0.880262 15.5388 2.25244C15.6756 2.60195 15.6072 2.9903 15.3471 3.26215C15.1418 3.46927 14.8544 3.57283 14.5807 3.57283Z"/>
</mask>
<path d="M14.5807 3.57283C14.4849 3.57283 14.3891 3.55988 14.2933 3.53399C13.8963 3.43043 13.5131 3.35276 13.1436 3.30098C11.9802 3.15859 10.8578 3.23626 9.80396 3.53399C9.42072 3.6505 9.01016 3.53399 8.75011 3.26215C8.49006 2.9903 8.40794 2.60195 8.55849 2.25244C9.11965 0.893207 10.4883 0 12.0486 0C13.6089 0 14.9776 0.880262 15.5388 2.25244C15.6756 2.60195 15.6072 2.9903 15.3471 3.26215C15.1418 3.46927 14.8544 3.57283 14.5807 3.57283Z" fill="#F1FAEE"/>
<path d="M14.2933 3.53399L15.4256 -0.6562L15.4073 -0.661128L15.389 -0.665897L14.2933 3.53399ZM13.1436 3.30098L13.7459 -0.997514L13.7084 -1.00276L13.6709 -1.00735L13.1436 3.30098ZM9.80396 3.53399L8.62391 -0.643006L8.58257 -0.631328L8.54147 -0.618833L9.80396 3.53399ZM8.55849 2.25244L12.5449 3.96959L12.5579 3.9393L12.5705 3.90881L8.55849 2.25244ZM15.5388 2.25244L19.5804 0.669743L19.5686 0.639501L19.5563 0.609438L15.5388 2.25244ZM15.3471 3.26215L18.4298 6.31778L18.457 6.2904L18.4836 6.26254L15.3471 3.26215ZM14.5807 -0.76766C14.8808 -0.76766 15.1655 -0.726474 15.4256 -0.6562L13.1609 7.72419C13.6126 7.84624 14.0889 7.91332 14.5807 7.91332V-0.76766ZM15.389 -0.665897C14.8454 -0.807728 14.2971 -0.92028 13.7459 -0.997514L12.5413 7.59948C12.7291 7.62581 12.9472 7.66859 13.1975 7.73388L15.389 -0.665897ZM13.6709 -1.00735C11.9786 -1.21449 10.273 -1.1089 8.62391 -0.643006L10.984 7.71099C11.4427 7.58142 11.9818 7.53166 12.6162 7.60932L13.6709 -1.00735ZM8.54147 -0.618833C9.74404 -0.984422 11.0291 -0.634594 11.8866 0.261756L5.61363 6.26254C6.99119 7.70258 9.09741 8.28542 11.0664 7.68682L8.54147 -0.618833ZM11.8866 0.261756C12.7579 1.17259 13.1248 2.62337 12.5449 3.96959L4.57211 0.535282C3.69111 2.58054 4.22222 4.80802 5.61363 6.26254L11.8866 0.261756ZM12.5705 3.90881C12.4214 4.2699 12.1396 4.34049 12.0486 4.34049V-4.34049C8.83703 -4.34049 5.81788 -2.48348 4.54648 0.59606L12.5705 3.90881ZM12.0486 4.34049C12.0101 4.34049 11.9232 4.32852 11.8164 4.25965C11.7067 4.18895 11.5908 4.06544 11.5213 3.89543L19.5563 0.609438C18.2794 -2.51274 15.2399 -4.34049 12.0486 -4.34049V4.34049ZM11.4971 3.83513C11.0458 2.6825 11.2503 1.26564 12.2107 0.261756L18.4836 6.26254C19.9641 4.71496 20.3055 2.5214 19.5804 0.669743L11.4971 3.83513ZM12.2645 0.206512C12.962 -0.497238 13.8276 -0.76766 14.5807 -0.76766V7.91332C15.8812 7.91332 17.3216 7.43577 18.4298 6.31778L12.2645 0.206512Z" fill="#F1FAEE" mask="url(#path-3-inside-2_161_132)"/>
<mask id="path-5-inside-3_161_132" fill="white">
<path d="M12.0348 27.9999C10.6798 27.9999 9.36582 27.4821 8.40778 26.576C7.4497 25.6698 6.90222 24.4271 6.90222 23.1455H8.95525C8.95525 23.9093 9.2837 24.6601 9.85855 25.2038C10.4334 25.7475 11.2272 26.0582 12.0348 26.0582C13.7319 26.0582 15.1143 24.7507 15.1143 23.1455H17.1673C17.1673 25.8252 14.8679 27.9999 12.0348 27.9999Z"/>
</mask>
<path d="M12.0348 27.9999C10.6798 27.9999 9.36582 27.4821 8.40778 26.576C7.4497 25.6698 6.90222 24.4271 6.90222 23.1455H8.95525C8.95525 23.9093 9.2837 24.6601 9.85855 25.2038C10.4334 25.7475 11.2272 26.0582 12.0348 26.0582C13.7319 26.0582 15.1143 24.7507 15.1143 23.1455H17.1673C17.1673 25.8252 14.8679 27.9999 12.0348 27.9999Z" fill="#F1FAEE"/>
<path d="M8.40778 26.576L11.3904 23.4226L11.3903 23.4225L8.40778 26.576ZM6.90222 23.1455V18.805H2.56173V23.1455H6.90222ZM8.95525 23.1455H13.2957V18.805H8.95525V23.1455ZM15.1143 23.1455V18.805H10.7738V23.1455H15.1143ZM17.1673 23.1455H21.5078V18.805H17.1673V23.1455ZM12.0348 23.6594C11.762 23.6594 11.523 23.548 11.3904 23.4226L5.42517 29.7294C7.20868 31.4163 9.59752 32.3404 12.0348 32.3404V23.6594ZM11.3903 23.4225C11.2653 23.3042 11.2427 23.1883 11.2427 23.1455H2.56173C2.56173 25.6659 3.63412 28.0354 5.42524 29.7294L11.3903 23.4225ZM6.90222 27.486H8.95525V18.805H6.90222V27.486ZM4.61477 23.1455C4.61477 25.1438 5.46484 27.0226 6.87601 28.3573L12.8411 22.0503C13.1026 22.2976 13.2957 22.6748 13.2957 23.1455H4.61477ZM6.87601 28.3573C8.27909 29.6843 10.1489 30.3987 12.0348 30.3987V21.7177C12.1841 21.7177 12.3208 21.7456 12.4444 21.7941C12.5679 21.8426 12.7058 21.9224 12.8411 22.0503L6.87601 28.3573ZM12.0348 30.3987C15.8981 30.3987 19.4548 27.3726 19.4548 23.1455H10.7738C10.7738 22.1288 11.5658 21.7177 12.0348 21.7177V30.3987ZM15.1143 27.486H17.1673V18.805H15.1143V27.486ZM12.8269 23.1455C12.8269 23.2048 12.8088 23.3032 12.681 23.4241C12.5491 23.5489 12.3299 23.6594 12.0348 23.6594V32.3404C17.0341 32.3404 21.5078 28.4471 21.5078 23.1455H12.8269Z" fill="#F1FAEE" mask="url(#path-5-inside-3_161_132)"/>
</svg>
