<svg width="60" height="60" viewBox="0 0 60 60" fill="none" xmlns="http://www.w3.org/2000/svg">
<rect width="60" height="60" rx="15" fill="#E63946"/>
<path d="M19.9408 16.784C19.0066 16.9627 18.3229 17.768 18.3473 18.719L18.4343 22.1273C29.0809 19.3677 38.2687 24.3321 41.7638 34.6899L44.7096 32.8708C45.5228 32.3684 45.822 31.3466 45.4515 30.4645C41.32 20.634 30.4571 14.775 19.9408 16.784ZM18.4826 24.0422L19.0709 47.0281C19.0751 47.1951 19.1233 47.358 19.2106 47.5004C19.2979 47.6428 19.4213 47.7597 19.5681 47.8392C19.715 47.9188 19.8803 47.9581 20.0473 47.9534C20.2143 47.9487 20.3771 47.9 20.5192 47.8123L40.1255 35.7001C37.0249 25.9293 28.4222 21.2751 18.4832 24.0444L18.4826 24.0422ZM25.005 40.6876C24.6489 40.7911 24.2701 40.7867 23.9165 40.6749C23.5629 40.5631 23.2503 40.349 23.0184 40.0596C22.7865 39.7702 22.6456 39.4185 22.6136 39.0491C22.5815 38.6796 22.6598 38.3089 22.8384 37.9839C23.017 37.6589 23.288 37.3942 23.6171 37.2232C23.9461 37.0522 24.3185 36.9826 24.6872 37.0233C25.0558 37.0639 25.4041 37.213 25.688 37.4516C25.9719 37.6901 26.1787 38.0076 26.2822 38.3637C26.421 38.8412 26.3644 39.3543 26.1249 39.7902C25.8854 40.226 25.4825 40.5488 25.005 40.6876ZM25.2199 31.3499C24.8638 31.4534 24.4849 31.449 24.1313 31.3373C23.7777 31.2255 23.4652 31.0113 23.2333 30.7219C23.0014 30.4325 22.8605 30.0809 22.8285 29.7114C22.7964 29.3419 22.8746 28.9713 23.0533 28.6463C23.2319 28.3213 23.5029 28.0565 23.8319 27.8855C24.161 27.7145 24.5334 27.645 24.902 27.6856C25.2706 27.7263 25.6189 27.8753 25.9028 28.1139C26.1868 28.3525 26.3935 28.6699 26.4971 29.026C26.6359 29.5036 26.5793 30.0167 26.3398 30.4525C26.1002 30.8883 25.6974 31.2111 25.2199 31.3499ZM32.7726 35.5008C32.4164 35.6043 32.0376 35.5999 31.684 35.4881C31.3304 35.3764 31.0179 35.1622 30.786 34.8728C30.5541 34.5834 30.4132 34.2318 30.3811 33.8623C30.3491 33.4928 30.4273 33.1222 30.6059 32.7972C30.7846 32.4722 31.0555 32.2074 31.3846 32.0364C31.7137 31.8654 32.0861 31.7959 32.4547 31.8365C32.8233 31.8771 33.1716 32.0262 33.4555 32.2648C33.7394 32.5034 33.9462 32.8208 34.0497 33.1769C34.1885 33.6545 34.132 34.1676 33.8924 34.6034C33.6529 35.0392 33.2501 35.362 32.7726 35.5008Z" fill="#FCFCFC"/>
</svg>
