<svg width="39" height="39" viewBox="0 0 39 39" fill="none" xmlns="http://www.w3.org/2000/svg">
<g filter="url(#filter0_d_1_318)">
<mask id="mask0_1_318" style="mask-type:alpha" maskUnits="userSpaceOnUse" x="4" y="0" width="31" height="31">
<circle cx="19.5" cy="15.5" r="15.5" fill="#D9D9D9"/>
</mask>
<g mask="url(#mask0_1_318)">
<rect x="0.125" y="-3.875" width="38.75" height="38.75" fill="#F1FAEE"/>
</g>
<mask id="mask1_1_318" style="mask-type:alpha" maskUnits="userSpaceOnUse" x="8" y="3" width="24" height="25">
<path fill-rule="evenodd" clip-rule="evenodd" d="M22.385 18.9458C19.7348 21.0685 15.8553 20.9014 13.3985 18.4446C10.7625 15.8086 10.7625 11.5347 13.3985 8.89866C16.0346 6.26262 20.3084 6.26262 22.9445 8.89866C25.4013 11.3554 25.5683 15.2349 23.4457 17.8851L28.6013 23.0408C28.8942 23.3337 28.8942 23.8085 28.6013 24.1014C28.3084 24.3943 27.8335 24.3943 27.5407 24.1014L22.385 18.9458ZM14.4592 17.3839C12.4089 15.3337 12.4089 12.0096 14.4592 9.95932C16.5095 7.90907 19.8336 7.90907 21.8838 9.95932C23.9326 12.0081 23.9341 15.3288 21.8883 17.3794C21.8868 17.3809 21.8853 17.3824 21.8838 17.3839C21.8823 17.3854 21.8808 17.3869 21.8793 17.3884C19.8287 19.4342 16.5079 19.4327 14.4592 17.3839Z" fill="black"/>
</mask>
<g mask="url(#mask1_1_318)">
<rect x="7.9165" y="3" width="24" height="24" fill="#457B9D"/>
</g>
</g>
<defs>
<filter id="filter0_d_1_318" x="0" y="0" width="39" height="39" filterUnits="userSpaceOnUse" color-interpolation-filters="sRGB">
<feFlood flood-opacity="0" result="BackgroundImageFix"/>
<feColorMatrix in="SourceAlpha" type="matrix" values="0 0 0 0 0 0 0 0 0 0 0 0 0 0 0 0 0 0 127 0" result="hardAlpha"/>
<feOffset dy="4"/>
<feGaussianBlur stdDeviation="2"/>
<feComposite in2="hardAlpha" operator="out"/>
<feColorMatrix type="matrix" values="0 0 0 0 0 0 0 0 0 0 0 0 0 0 0 0 0 0 0.25 0"/>
<feBlend mode="normal" in2="BackgroundImageFix" result="effect1_dropShadow_1_318"/>
<feBlend mode="normal" in="SourceGraphic" in2="effect1_dropShadow_1_318" result="shape"/>
</filter>
</defs>
</svg>
