<svg width="26" height="26" viewBox="0 0 26 26" fill="none" xmlns="http://www.w3.org/2000/svg">
<path d="M1 1H3.1363C4.46228 1 5.50585 2.116 5.39535 3.4L4.37632 15.352C4.20443 17.308 5.78822 18.988 7.80174 18.988H20.8773C22.6453 18.988 24.1923 17.572 24.3273 15.856L24.9903 6.856C25.1376 4.864 23.5907 3.244 21.5403 3.244H5.69003" stroke="#F1FAEE" stroke-width="2" stroke-miterlimit="10" stroke-linecap="round" stroke-linejoin="round"/>
<path d="M18.4955 25C19.3431 25 20.0302 24.3285 20.0302 23.5C20.0302 22.6715 19.3431 22 18.4955 22C17.6479 22 16.9608 22.6715 16.9608 23.5C16.9608 24.3285 17.6479 25 18.4955 25Z" stroke="#F1FAEE" stroke-width="2" stroke-miterlimit="10" stroke-linecap="round" stroke-linejoin="round"/>
<path d="M8.67342 25C9.52102 25 10.2081 24.3285 10.2081 23.5C10.2081 22.6715 9.52102 22 8.67342 22C7.82583 22 7.13873 22.6715 7.13873 23.5C7.13873 24.3285 7.82583 25 8.67342 25Z" stroke="#F1FAEE" stroke-width="2" stroke-miterlimit="10" stroke-linecap="round" stroke-linejoin="round"/>
<path d="M9.59424 8.20001H24.3273" stroke="#F1FAEE" stroke-width="2" stroke-miterlimit="10" stroke-linecap="round" stroke-linejoin="round"/>
</svg>
